<svg id="SvgjsSvg1044" width="288" height="288" xmlns="http://www.w3.org/2000/svg" version="1.1" xmlns:xlink="http://www.w3.org/1999/xlink" xmlns:svgjs="http://svgjs.com/svgjs"><defs id="SvgjsDefs1045"></defs><g id="SvgjsG1046"><svg xmlns="http://www.w3.org/2000/svg" viewBox="0 0 32 32" width="288" height="288"><path d="M27,2H5c-1.654,0-3,1.346-3,3V27c0,1.654,1.346,3,3,3H27c1.654,0,3-1.346,3-3V5c0-1.654-1.346-3-3-3Zm1,25c0,.551-.448,1-1,1H5c-.552,0-1-.449-1-1V5c0-.551,.448-1,1-1H27c.552,0,1,.449,1,1V27ZM12.707,15.293c.391,.391,.391,1.023,0,1.414l-4,4c-.195,.195-.451,.293-.707,.293s-.512-.098-.707-.293c-.391-.391-.391-1.023,0-1.414l3.293-3.293-3.293-3.293c-.391-.391-.391-1.023,0-1.414s1.023-.391,1.414,0l4,4Zm12.293,4.707c0,.552-.447,1-1,1H15c-.553,0-1-.448-1-1s.447-1,1-1h9c.553,0,1,.448,1,1Z" fill="#facc15" class="svgShape color000000-0 selectable"></path></svg></g></svg>