<svg id="SvgjsSvg1016" width="288" height="288" xmlns="http://www.w3.org/2000/svg" version="1.1" xmlns:xlink="http://www.w3.org/1999/xlink" xmlns:svgjs="http://svgjs.com/svgjs"><defs id="SvgjsDefs1017"></defs><g id="SvgjsG1018"><svg xmlns="http://www.w3.org/2000/svg" viewBox="0 0 48 48" width="288" height="288"><path d="M4 25a1 1 0 0 1-1-1V5a2.002 2.002 0 0 1 2-2h18a2.002 2.002 0 0 1 2 2v14a2.002 2.002 0 0 1-2 2H8.414l-3.707 3.707A.999.999 0 0 1 4 25zM23 4.998 5 5v16.586l2.293-2.293A1 1 0 0 1 8 19h15zM44 45a.999.999 0 0 1-.707-.293L39.586 41H25a2.002 2.002 0 0 1-2-2V25a2.002 2.002 0 0 1 2-2h18a2.002 2.002 0 0 1 2 2v19a1 1 0 0 1-1 1zM25 25v14h15a1 1 0 0 1 .707.293L43 41.586V25z" fill="#facc15" class="svgShape color000000-0 selectable"></path><path d="M10.998 17a1 1 0 0 1-.14-1.99 6.125 6.125 0 0 0 3.435-1.717A6.057 6.057 0 0 0 15.73 11H11a1 1 0 0 1 0-2h6a1 1 0 0 1 .99 1.141 8.07 8.07 0 0 1-6.848 6.849 1.008 1.008 0 0 1-.143.01Z" fill="#facc15" class="svgShape color000000-1 selectable"></path><path d="M14 11a1 1 0 0 1-1-1V8a1 1 0 0 1 2 0v2a1 1 0 0 1-1 1zm4.001 6q-.039 0-.08-.003a7.522 7.522 0 0 1-5.764-3.459 1 1 0 0 1 1.686-1.076 5.516 5.516 0 0 0 4.235 2.54A1 1 0 0 1 18.001 17zm11.998 20a1 1 0 0 1-.893-1.447l4-8a1 1 0 0 1 1.788.894l-4 8A1 1 0 0 1 30 37z" fill="#facc15" class="svgShape color000000-2 selectable"></path><path d="M38.001 37a1 1 0 0 1-.895-.553l-4-8a1 1 0 0 1 1.788-.894l4 8A1 1 0 0 1 38.002 37Z" fill="#facc15" class="svgShape color000000-3 selectable"></path><path d="M37.483 33.967h-6.966a1 1 0 0 1 0-2h6.966a1 1 0 0 1 0 2zM10 27a1 1 0 0 1-.707-1.707l2-2a1 1 0 0 1 1.414 1.414l-2 2A.997.997 0 0 1 10 27z" fill="#facc15" class="svgShape color000000-4 selectable"></path><path d="M14 27a.997.997 0 0 1-.707-.293l-2-2a1 1 0 0 1 1.414-1.414l2 2A1 1 0 0 1 14 27Z" fill="#facc15" class="svgShape color000000-5 selectable"></path><path d="M20 35h-7a2.002 2.002 0 0 1-2-2v-9a1 1 0 0 1 2 0v9h7a1 1 0 0 1 0 2zm16-14a1 1 0 0 1-.707-1.707l2-2a1 1 0 0 1 1.414 1.414l-2 2A.997.997 0 0 1 36 21z" fill="#facc15" class="svgShape color000000-6 selectable"></path><path d="M36 21a.997.997 0 0 1-.707-.293l-2-2a1 1 0 0 1 1.414-1.414l2 2A1 1 0 0 1 36 21Z" fill="#facc15" class="svgShape color000000-7 selectable"></path><path d="M36 21a1 1 0 0 1-1-1v-9h-7a1 1 0 0 1 0-2h7a2.002 2.002 0 0 1 2 2v9a1 1 0 0 1-1 1Z" fill="#facc15" class="svgShape color000000-8 selectable"></path></svg></g></svg>