<svg id="SvgjsSvg1038" width="288" height="288" xmlns="http://www.w3.org/2000/svg" version="1.1" xmlns:xlink="http://www.w3.org/1999/xlink" xmlns:svgjs="http://svgjs.com/svgjs"><defs id="SvgjsDefs1039"></defs><g id="SvgjsG1040"><svg xmlns="http://www.w3.org/2000/svg" viewBox="0 0 100 100" width="288" height="288"><path d="M59.386,33.619l7.975,11.393v9.196c0,.829,.672,1.5,1.5,1.5h1.572v3.377c0,.829,.672,1.5,1.5,1.5h9.227c.828,0,1.5-.671,1.5-1.5v-3.377h1.573c.828,0,1.5-.671,1.5-1.5v-9.196l7.977-11.396c.037-.049,.071-.101,.103-.154,1.759-3.025,2.688-6.484,2.688-10.002,0-11.006-8.951-19.96-19.954-19.96s-19.954,8.954-19.954,19.96c0,3.518,.93,6.977,2.688,10.002,.031,.054,.067,.106,.105,.157Zm20.273,23.966h-6.227v-1.877h6.227v1.877Zm3.073-4.877h-12.372v-6.67h12.372v6.67Zm-6.187-46.208c9.349,0,16.954,7.608,16.954,16.96,0,2.964-.776,5.877-2.245,8.43l-7.801,11.146h-13.815l-7.807-11.153c-1.466-2.551-2.24-5.461-2.24-8.422,0-9.352,7.605-16.96,16.954-16.96Z" fill="#facc15" class="svgShape color000000-0 selectable"></path><path d="M64.206 23.368c0-6.805 5.535-12.34 12.34-12.34.828 0 1.5-.671 1.5-1.5s-.672-1.5-1.5-1.5c-8.458 0-15.34 6.882-15.34 15.34 0 .829.672 1.5 1.5 1.5s1.5-.671 1.5-1.5zM5 96.5H74.169c.828 0 1.5-.671 1.5-1.5 0-3.418-.48-6.792-1.425-10.016-.961-3.386-2.436-6.621-4.382-9.614-5.123-7.895-12.971-13.34-21.881-15.459 6.153-3.091 10.395-9.445 10.395-16.787 0-2.151-.363-4.26-1.077-6.262-2.12-6.021-7.31-10.644-13.549-12.067-1.37-.307-2.771-.462-4.167-.462-10.362 0-18.792 8.43-18.792 18.792 0 7.342 4.242 13.696 10.394 16.787-8.91 2.119-16.757 7.563-21.88 15.458-1.946 2.995-3.421 6.229-4.378 9.603-.948 3.236-1.429 6.61-1.429 10.029 0 .829.672 1.5 1.5 1.5zM23.792 43.124c0-8.708 7.084-15.792 15.792-15.792 1.175 0 2.356.131 3.505.389 5.239 1.195 9.601 5.08 11.383 10.143.601 1.684.905 3.454.905 5.26 0 8.708-7.085 15.792-15.793 15.792s-15.792-7.084-15.792-15.792zM7.812 85.802c.878-3.096 2.228-6.057 4.012-8.8 6.129-9.447 16.507-15.087 27.761-15.087s21.632 5.64 27.763 15.088c1.783 2.742 3.133 5.702 4.015 8.811.729 2.488 1.156 5.066 1.273 7.685H6.534c.117-2.619.545-5.199 1.277-7.698z" fill="#facc15" class="svgShape color000000-1 selectable"></path></svg></g></svg>