<svg id="SvgjsSvg1011" width="288" height="288" xmlns="http://www.w3.org/2000/svg" version="1.1" xmlns:xlink="http://www.w3.org/1999/xlink" xmlns:svgjs="http://svgjs.com/svgjs"><defs id="SvgjsDefs1012"></defs><g id="SvgjsG1013"><svg xmlns="http://www.w3.org/2000/svg" viewBox="0 0 16 16" width="288" height="288"><path fill="#facc15" d="M11.5,8 C12.3284271,8 13,8.67157288 13,9.5 L13,10 C13,11.9714437 11.14049,14 8,14 C4.85950997,14 3,11.9714437 3,10 L3,9.5 C3,8.67157288 3.67157288,8 4.5,8 L11.5,8 Z M8,1.5 C9.51878306,1.5 10.75,2.73121694 10.75,4.25 C10.75,5.76878306 9.51878306,7 8,7 C6.48121694,7 5.25,5.76878306 5.25,4.25 C5.25,2.73121694 6.48121694,1.5 8,1.5 Z" class="svgShape color212121-0 selectable"></path></svg></g></svg>